#!OML:ASF H:\MichaelJackson\Top Level 1\Subject 1\Session 1\male.ASF
:FULLY-SPECIFIED
:DEGREES
159
root 4.88599 16.7182 -24.9695 8.81232 2.7772 -1.07631
lowerback -2.81644 1.2139 -2.77061
upperback -0.230026 1.69265 0.977924
thorax 1.23259 0.829818 2.62097
lowerneck -9.60142 0.308349 -3.46398
upperneck 1.17706 0.724978 2.20064
head 2.01146 0.404403 1.33805
rclavicle 2.96935e-014 5.64051e-015
rhumerus -35.271 13.3856 -92.4742
rradius 42.1619
rwrist 9.72359
rhand -25.5175 -22.0542
rfingers 7.12502
rthumb 1.01178 -52.0315
lclavicle 2.96935e-014 5.64051e-015
lhumerus -39.2415 0.709612 89.6367
lradius 52.9561
lwrist 18.4027
lhand -15.0154 6.80115
lfingers 7.12502
lthumb 11.1499 36.4849
rfemur -16.6482 -1.08523 21.4143
rtibia 35.0282
rfoot -22.9704 -13.7924
rtoes 13.9428
lfemur -36.8776 5.10164 -16.0331
ltibia 44.1631
lfoot -13.5443 -3.66954
ltoes 9.70808
160
root 4.86657 16.7203 -25.0083 8.74784 3.0447 -1.07402
lowerback -2.72721 1.16106 -2.70209
upperback -0.190217 1.61782 0.990642
thorax 1.22989 0.792276 2.59135
lowerneck -9.58887 0.306653 -3.48972
upperneck 1.18966 0.725443 2.1942
head 2.01336 0.404144 1.34054
rclavicle -2.54569e-014 -2.07233e-014
rhumerus -35.3893 13.4029 -92.4784
rradius 42.0038
rwrist 9.78589
rhand -25.3745 -22.1793
rfingers 7.12502
rthumb 1.14988 -52.156
lclavicle -2.54569e-014 -2.07233e-014
lhumerus -39.1683 0.548443 89.8458
lradius 52.5929
lwrist 18.0448
lhand -14.6204 6.87048
lfingers 7.12502
lthumb 11.5309 36.5333
rfemur -16.6983 -1.19439 21.5045
rtibia 35.0284
rfoot -22.9012 -13.8483
rtoes 14.2268
lfemur -37.0588 5.2228 -16.1911
ltibia 45.3602
lfoot -13.9972 -4.51419
ltoes 10.1346
161
root 4.84876 16.7225 -25.046 8.67452 3.28478 -1.06944
lowerback -2.63985 1.11544 -2.64205
upperback -0.151673 1.55296 1.00946
thorax 1.22575 0.759717 2.57325
lowerneck -9.57048 0.303432 -3.50935
upperneck 1.20051 0.723693 2.16991
head 2.01363 0.402274 1.33598
rclavicle -2.3382e-014 2.5345e-015
rhumerus -35.5145 13.4174 -92.4654
rradius 41.8215
rwrist 9.87906
rhand -25.218 -22.2673
rfingers 7.12502
rthumb 1.30106 -52.2431
lclavicle -2.3382e-014 2.5345e-015
lhumerus -39.0859 0.40527 90.069
lradius 52.1769
lwrist 17.6626
lhand -14.205 6.91999
lfingers 7.12502
lthumb 11.9314 36.56
rfemur -16.7459 -1.29402 21.5813
rtibia 35.0428
rfoot -22.918 -13.8224
rtoes 14.6782
lfemur -37.2178 5.36648 -16.3776
ltibia 46.6916
lfoot -14.4001 -5.2967
ltoes 10.7905
162
root 4.83239 16.7235 -25.0828 8.59624 3.49942 -1.05974
lowerback -2.55468 1.07566 -2.59555
upperback -0.116485 1.49635 1.03273
thorax 1.21831 0.731309 2.5677
lowerneck -9.55414 0.302888 -3.5297
upperneck 1.21908 0.725782 2.14087
head 2.01669 0.402128 1.33027
rclavicle -2.67987e-014 7.00716e-015
rhumerus -35.6415 13.415 -92.4343
rradius 41.6044
rwrist 10.0069
rhand -24.9992 -22.3837
rfingers 7.12502
rthumb 1.51239 -52.358
lclavicle -2.67987e-014 7.00716e-015
lhumerus -38.9969 0.289828 90.2986
lradius 51.7133
lwrist 17.2707
lhand -13.7703 6.95943
lfingers 7.12502
lthumb 12.3506 36.5746
rfemur -16.7997 -1.38294 21.6435
rtibia 35.0784
rfoot -22.9341 -13.7823
rtoes 15.4211
lfemur -37.3351 5.51727 -16.5845
ltibia 48.1189
lfoot -14.7303 -5.96995
ltoes 11.5001
163
root 4.81743 16.7242 -25.1182 8.52003 3.68254 -1.04468
lowerback -2.48163 1.04362 -2.56249
upperback -0.0875664 1.45074 1.05878
thorax 1.21008 0.708413 2.57319
lowerneck -9.53937 0.304866 -3.54819
upperneck 1.24857 0.731229 2.10559
head 2.02352 0.403411 1.32251
rclavicle -1.43125e-014 -1.01877e-014
rhumerus -35.7715 13.3851 -92.385
rradius 41.3508
rwrist 10.1677
rhand -24.7565 -22.4688
rfingers 7.12502
rthumb 1.74675 -52.4414
lclavicle -1.43125e-014 -1.01877e-014
lhumerus -38.9066 0.203036 90.532
lradius 51.2077
lwrist 16.8815
lhand -13.3166 6.9881
lfingers 7.12502
lthumb 12.788 36.5764
rfemur -16.87 -1.45717 21.6909
rtibia 35.143
rfoot -23.0252 -13.6809
rtoes 16.2479
lfemur -37.4111 5.66807 -16.805
ltibia 49.6006
lfoot -14.9424 -6.52157
ltoes 12.1628
164
root 4.8037 16.7243 -25.1522 8.45027 3.82862 -1.02008
lowerback -2.42259 1.02016 -2.54728
upperback -0.0666098 1.41743 1.08403
thorax 1.20033 0.691691 2.58854
lowerneck -9.52876 0.309538 -3.56431
upperneck 1.29268 0.740135 2.06789
head 2.03584 0.40627 1.31389
rclavicle -1.78906e-015 -1.49089e-015
rhumerus -35.904 13.3231 -92.3206
rradius 41.0595
rwrist 10.3554
rhand -24.5272 -22.5791
rfingers 7.12502
rthumb 1.96824 -52.5498
lclavicle -1.78906e-015 -1.49089e-015
lhumerus -38.8196 0.145365 90.7625
lradius 50.6696
lwrist 16.5062
lhand -12.8483 7.02633
lfingers 7.12502
lthumb 13.2395 36.5859
rfemur -16.9622 -1.5136 21.7194
rtibia 35.2401
rfoot -23.1221 -13.5671
rtoes 17.3742
lfemur -37.436 5.81461 -17.0353
ltibia 51.0937
lfoot -15.0724 -6.9429
ltoes 12.6904
165
root 4.79115 16.7236 -25.1846 8.39111 3.93585 -0.991469
lowerback -2.38328 1.00562 -2.54409
upperback -0.0553622 1.39679 1.10852
thorax 1.19061 0.681355 2.6106
lowerneck -9.51807 0.318315 -3.57706
upperneck 1.34881 0.754058 2.03008
head 2.05199 0.411548 1.305
rclavicle 1.66855e-014 -1.43125e-014
rhumerus -36.0375 13.2223 -92.2425
rradius 40.7275
rwrist 10.5637
rhand -24.3368 -22.631
rfingers 7.12502
rthumb 2.15206 -52.5999
lclavicle 1.66855e-014 -1.43125e-014
lhumerus -38.742 0.11688 90.986
lradius 50.1086
lwrist 16.1448
lhand -12.384 7.0928
lfingers 7.12502
lthumb 13.6869 36.6227
rfemur -17.0768 -1.55201 21.7359
rtibia 35.3597
rfoot -23.2535 -13.4259
rtoes 18.3308
lfemur -37.4059 5.95603 -17.2654
ltibia 52.5519
lfoot -15.1419 -7.25659
ltoes 13.027
166
root 4.77967 16.7221 -25.2153 8.34441 4.00659 -0.951628
lowerback -2.36763 0.99887 -2.56173
upperback -0.0527754 1.38765 1.13024
thorax 1.18413 0.676716 2.64228
lowerneck -9.51627 0.329018 -3.57822
upperneck 1.42596 0.769827 1.98259
head 2.07664 0.417404 1.29133
rclavicle 4.63417e-015 1.3418e-014
rhumerus -36.173 13.0814 -92.1521
rradius 40.3584
rwrist 10.7866
rhand -24.0097 -22.777
rfingers 7.12502
rthumb 2.46803 -52.7425
lclavicle 4.63417e-015 1.3418e-014
lhumerus -38.6765 0.113926 91.203
lradius 49.5331
lwrist 15.7943
lhand -11.9329 7.18543
lfingers 7.12502
lthumb 14.1217 36.6855
rfemur -17.2097 -1.5654 21.7334
rtibia 35.494
rfoot -23.3292 -13.3296
rtoes 19.2783
lfemur -37.3094 6.09189 -17.4994
ltibia 53.934
lfoot -15.1895 -7.50287
ltoes 13.1377
167
root 4.76922 16.7211 -25.2438 8.31283 4.03906 -0.903652
lowerback -2.38363 0.999204 -2.59907
upperback -0.057353 1.38923 1.15051
thorax 1.18692 0.677273 2.68447
lowerneck -9.51146 0.343417 -3.56393
upperneck 1.50744 0.789146 1.92367
head 2.10206 0.424732 1.2714
rclavicle -1.53561e-014 1.22253e-014
rhumerus -36.3025 12.9045 -92.0501
rradius 39.9487
rwrist 11.0163
rhand -23.8069 -22.8812
rfingers 7.12502
rthumb 2.66382 -52.8443
lclavicle -1.53561e-014 1.22253e-014
lhumerus -38.6242 0.135251 91.4125
lradius 48.9502
lwrist 15.4523
lhand -11.5042 7.29472
lfingers 7.12502
lthumb 14.5347 36.7655
rfemur -17.3546 -1.55551 21.715
rtibia 35.6304
rfoot -23.4189 -13.2248
rtoes 19.9593
lfemur -37.1548 6.22824 -17.7322
ltibia 55.1989
lfoot -15.2196 -7.71067
ltoes 13.0136
168
root 4.7597 16.7209 -25.2702 8.30015 4.04221 -0.846099
lowerback -2.42212 1.00073 -2.64998
upperback -0.0755958 1.39332 1.16457
thorax 1.18795 0.679231 2.72829
lowerneck -9.51298 0.365631 -3.54615
upperneck 1.6051 0.818311 1.8732
head 2.13377 0.437127 1.2543
rclavicle -6.26172e-015 2.57426e-014
rhumerus -36.4301 12.6938 -91.949
rradius 39.4982
rwrist 11.2565
rhand -23.4032 -23.0692
rfingers 7.12502
rthumb 3.05376 -53.0271
lclavicle -6.26172e-015 2.57426e-014
lhumerus -38.5972 0.180802 91.6042
lradius 48.3706
lwrist 15.1102
lhand -11.1146 7.439
lfingers 7.12502
lthumb 14.9101 36.8824
rfemur -17.5106 -1.52785 21.681
rtibia 35.7608
rfoot -23.4364 -13.1774
rtoes 20.5536
lfemur -36.9461 6.36039 -17.9662
ltibia 56.3148
lfoot -15.2346 -7.9242
ltoes 12.686
169
root 4.75106 16.7214 -25.2944 8.30196 4.0181 -0.783353
lowerback -2.48357 1.00255 -2.71032
upperback -0.101931 1.3987 1.1742
thorax 1.19334 0.681825 2.7733
lowerneck -9.52383 0.394382 -3.52112
upperneck 1.71453 0.855617 1.82427
head 2.17094 0.453604 1.23703
rclavicle 1.17407e-014 -4.96962e-016
rhumerus -36.5501 12.4563 -91.8504
rradius 39.0093
rwrist 11.4912
rhand -23.0818 -23.3051
rfingers 7.12502
rthumb 3.36412 -53.2583
lclavicle 1.17407e-014 -4.96962e-016
lhumerus -38.5888 0.242444 91.7821
lradius 47.796
lwrist 14.7593
lhand -10.7796 7.5877
lfingers 7.12502
lthumb 15.2328 37.0069
rfemur -17.6671 -1.47599 21.6366
rtibia 35.8755
rfoot -23.4668 -13.1294
rtoes 20.8993
lfemur -36.6737 6.48938 -18.1945
ltibia 57.254
lfoot -15.2377 -8.14475
ltoes 12.1603
170
root 4.74333 16.7223 -25.3165 8.31999 3.97377 -0.713187
lowerback -2.56747 1.00244 -2.78345
upperback -0.136428 1.40252 1.18008
thorax 1.20281 0.68363 2.822
lowerneck -9.54353 0.430677 -3.49614
upperneck 1.83133 0.902872 1.78546
head 2.212 0.475304 1.22371
rclavicle -7.14382e-015 -6.55989e-015
rhumerus -36.6509 12.184 -91.7469
rradius 38.4768
rwrist 11.7514
rhand -22.5288 -23.6671
rfingers 7.12502
rthumb 3.89812 -53.6112
lclavicle -7.14382e-015 -6.55989e-015
lhumerus -38.6001 0.315836 91.9481
lradius 47.2301
lwrist 14.4003
lhand -10.4967 7.72428
lfingers 7.12502
lthumb 15.5053 37.1226
rfemur -17.8288 -1.40507 21.5804
rtibia 35.9814
rfoot -23.4021 -13.1802
rtoes 20.8652
lfemur -36.3377 6.60768 -18.4188
ltibia 57.9968
lfoot -15.2147 -8.40973
ltoes 11.5744
171
root 4.73668 16.7239 -25.3363 8.34971 3.90406 -0.637412
lowerback -2.67045 1.00116 -2.86139
upperback -0.177512 1.40555 1.18052
thorax 1.21626 0.685057 2.86812
lowerneck -9.56771 0.47364 -3.46376
upperneck 1.95042 0.958386 1.74579
head 2.25451 0.501133 1.2093
rclavicle 1.35049e-014 1.55052e-014
rhumerus -36.7366 11.8838 -91.6426
rradius 37.9086
rwrist 12.0387
rhand -21.9682 -24.0732
rfingers 7.12502
rthumb 4.43951 -54.0067
lclavicle 1.35049e-014 1.55052e-014
lhumerus -38.6313 0.396433 92.102
lradius 46.6738
lwrist 14.0349
lhand -10.2832 7.85108
lfingers 7.12502
lthumb 15.7109 37.2333
rfemur -17.9918 -1.31651 21.5124
rtibia 36.0824
rfoot -23.395 -13.1933
rtoes 20.8254
lfemur -35.9345 6.71764 -18.6383
ltibia 58.5277
lfoot -15.1475 -8.71711
ltoes 10.9654
172
root 4.73112 16.7244 -25.3545 8.39605 3.81597 -0.562172
lowerback -2.79716 0.997366 -2.93956
upperback -0.223635 1.40603 1.17973
thorax 1.23803 0.68514 2.9135
lowerneck -9.59179 0.523291 -3.42413
upperneck 2.06177 1.02231 1.70041
head 2.29428 0.531078 1.1921
rclavicle 6.48535e-015 -8.34896e-015
rhumerus -36.7987 11.5541 -91.5304
rradius 37.3059
rwrist 12.3601
rhand -21.4258 -24.4779
rfingers 7.12502
rthumb 4.96323 -54.3998
lclavicle 6.48535e-015 -8.34896e-015
lhumerus -38.6751 0.481346 92.2484
lradius 46.1251
lwrist 13.6651
lhand -10.1399 7.94682
lfingers 7.12502
lthumb 15.8489 37.3181
rfemur -18.169 -1.21374 21.4399
rtibia 36.1869
rfoot -23.3793 -13.2198
rtoes 20.8229
lfemur -35.461 6.80843 -18.844
ltibia 58.8371
lfoot -15.0804 -9.05344
ltoes 10.2847
173
root 4.72679 16.7239 -25.371 8.45228 3.71492 -0.491379
lowerback -2.94372 0.990105 -3.00957
upperback -0.270964 1.40236 1.17813
thorax 1.27018 0.683031 2.95374
lowerneck -9.62188 0.579119 -3.39083
upperneck 2.16858 1.09509 1.66339
head 2.33352 0.565676 1.17922
rclavicle -1.2921e-015 1.45113e-014
rhumerus -36.8354 11.1929 -91.408
rradius 36.675
rwrist 12.7237
rhand -20.9777 -24.8296
rfingers 7.12502
rthumb 5.39585 -54.7409
lclavicle -1.2921e-015 1.45113e-014
lhumerus -38.7277 0.563985 92.3894
lradius 45.5831
lwrist 13.3049
lhand -10.0566 7.99671
lfingers 7.12502
lthumb 15.9292 37.3616
rfemur -18.3555 -1.10108 21.3667
rtibia 36.303
rfoot -23.4057 -13.2279
rtoes 20.8121
lfemur -34.9163 6.86765 -19.0312
ltibia 58.9192
lfoot -14.9888 -9.43875
ltoes 9.84413
